<svg width="1073" height="564" viewBox="0 0 1073 564" fill="none" xmlns="http://www.w3.org/2000/svg">
<rect x="1.5" y="1.5" width="1070" height="561" rx="30.5" fill="url(#paint0_linear_5_2)"/>
<rect x="1.5" y="1.5" width="1070" height="561" rx="30.5" stroke="#202020" stroke-width="3"/>
<rect x="28" y="33" width="29" height="20" rx="2" stroke="#F2F2F2" stroke-width="2"/>
<rect x="68" y="33" width="11" height="20" rx="2" stroke="#F2F2F2" stroke-width="2"/>
<rect x="28" y="59" width="10" height="20" rx="2" stroke="#F2F2F2" stroke-width="2"/>
<rect x="50" y="59" width="29" height="20" rx="2" stroke="#F2F2F2" stroke-width="2"/>
<g clip-path="url(#clip0_5_2)">
<path fill-rule="evenodd" clip-rule="evenodd" d="M1032 34.5C1035.31 34.5 1038 37.1863 1038 40.5V61.5C1038 64.8137 1035.31 67.5 1032 67.5H1020V72H1024.5C1025.33 72 1026 72.6716 1026 73.5C1026 74.3284 1025.33 75 1024.5 75H1003.5C1002.67 75 1002 74.3284 1002 73.5C1002 72.6716 1002.67 72 1003.5 72H1008V67.5H996C992.686 67.5 990 64.8137 990 61.5V40.5C990 37.1863 992.686 34.5 996 34.5H1032ZM1017 72V67.5H1011V72H1017Z" fill="#F2F2F2"/>
</g>
<path d="M527.077 169.07C525.296 169.995 523.212 171.125 521.001 171.125C518.79 171.125 517.039 170.103 515.786 169.105C515.15 168.61 514.642 168.116 514.255 167.754C513.585 167.226 513.668 166.487 513.942 166.512C514.402 166.571 514.47 167.177 514.764 167.446C515.155 167.813 515.645 168.288 516.241 168.762C517.43 169.701 519.015 170.621 521.001 170.621C522.987 170.621 525.296 169.457 526.71 168.664C527.507 168.214 528.525 167.412 529.357 166.8C529.993 166.336 529.968 165.773 530.492 165.832C531.015 165.895 530.628 166.453 529.895 167.094C529.026 167.848 528.082 168.511 527.077 169.07Z" fill="#F2F2F2"/>
<path d="M561.355 216.453C560.66 215.671 560.332 214.223 559.98 212.682C559.628 211.141 559.232 209.482 557.969 208.406L557.96 208.401C557.502 207.999 556.977 207.681 556.409 207.462C558.165 202.252 557.48 197.062 555.7 192.375C553.528 186.618 549.722 181.603 546.821 178.174C543.573 174.075 540.398 170.186 540.456 164.438C540.559 155.666 541.42 139.401 525.986 139.381C525.331 139.381 524.677 139.409 524.024 139.464C506.776 140.849 511.354 159.071 511.095 165.171C510.782 169.633 509.877 173.15 506.805 177.514C503.204 181.799 498.127 188.741 495.72 195.961C494.585 199.371 494.047 202.844 494.541 206.136C494.388 206.276 494.239 206.422 494.096 206.572C493.039 207.702 492.256 209.072 491.381 209.991C490.569 210.808 489.409 211.111 488.132 211.571C486.856 212.031 485.457 212.701 484.605 214.335L484.6 214.345C484.228 215.077 484.047 215.892 484.072 216.713C484.072 217.466 484.185 218.234 484.297 218.968C484.532 220.499 484.772 221.947 484.454 222.93C483.446 225.689 483.319 227.597 484.028 228.982C484.742 230.371 486.2 230.982 487.859 231.325C491.165 232.015 495.646 231.843 499.178 233.717L499.482 233.145L499.183 233.722C502.965 235.698 506.8 236.398 509.857 235.703C512.078 235.194 513.874 233.874 514.803 231.843C517.195 231.834 519.817 230.821 524.024 230.591C526.876 230.361 530.443 231.604 534.537 231.374C534.644 231.823 534.806 232.257 535.021 232.665C536.606 235.84 539.561 237.293 542.707 237.048C545.852 236.804 549.208 234.945 551.918 231.721L551.419 231.305L551.918 231.716C554.496 228.585 558.782 227.289 561.624 225.577C563.042 224.721 564.192 223.645 564.285 222.089C564.373 220.533 563.458 218.787 561.355 216.453ZM523.247 159.179C523.232 158.034 523.423 157.051 523.863 156.053C524.303 155.055 524.846 154.336 525.614 153.754C526.382 153.172 527.141 152.902 528.031 152.893H528.075C528.951 152.893 529.699 153.152 530.467 153.71C531.245 154.277 531.808 154.986 532.258 155.975C532.714 156.948 532.949 158.011 532.947 159.086C532.957 160.235 532.761 161.214 532.326 162.212C532.104 162.739 531.807 163.231 531.446 163.675L531.084 163.513C530.648 163.327 530.267 163.176 529.924 163.043C529.582 162.911 529.318 162.828 529.039 162.73C529.239 162.491 529.635 162.202 529.777 161.845C530.001 161.306 530.121 160.73 530.13 160.147L530.139 160.069C530.158 159.509 530.075 158.951 529.895 158.421C529.709 157.868 529.474 157.467 529.137 157.134C528.799 156.801 528.457 156.65 528.046 156.64H527.992C527.598 156.643 527.22 156.793 526.93 157.061C526.549 157.391 526.256 157.811 526.079 158.284C525.855 158.824 525.735 159.401 525.727 159.986L525.722 160.059C525.712 160.387 525.735 160.715 525.79 161.038C524.997 160.67 524.165 160.389 523.31 160.201C523.27 159.893 523.247 159.583 523.242 159.272V159.179H523.247ZM512.758 159.433C512.7 158.445 512.802 157.594 513.071 156.713C513.341 155.833 513.707 155.192 514.236 154.668C514.677 154.183 515.289 153.888 515.943 153.847H516.09C516.667 153.847 517.19 154.042 517.729 154.468C518.345 154.975 518.822 155.63 519.118 156.371C519.49 157.207 519.685 158.049 519.739 159.037V159.047C519.768 159.443 519.765 159.84 519.729 160.235C519.617 160.265 519.504 160.304 519.397 160.338C518.771 160.553 518.272 160.793 517.792 161.111C517.841 160.764 517.846 160.412 517.807 160.064V160.006C517.763 159.545 517.651 159.093 517.474 158.665C517.331 158.285 517.1 157.945 516.799 157.672C516.545 157.457 516.31 157.354 516.051 157.359L515.967 157.364C515.669 157.388 515.429 157.53 515.199 157.814C514.953 158.135 514.784 158.508 514.705 158.905C514.597 159.375 514.566 159.859 514.612 160.338L514.617 160.397C514.666 160.901 514.769 161.321 514.945 161.742C515.113 162.174 515.393 162.552 515.757 162.838C515.468 163.058 515.278 163.22 515.043 163.391L514.505 163.787C514.019 163.314 513.637 162.744 513.385 162.114C513.013 161.27 512.801 160.364 512.758 159.443V159.433ZM513.517 165.44C514.431 164.756 515.058 164.296 515.483 163.983C515.904 163.675 516.075 163.562 516.207 163.435C516.892 162.789 517.983 161.605 519.632 161.038C520.194 160.842 520.83 160.72 521.539 160.715C522.885 160.71 524.514 161.15 526.48 162.417C527.689 163.2 528.628 163.268 530.795 164.193C531.837 164.619 532.453 165.181 532.752 165.763C533.05 166.35 533.06 166.986 532.81 167.657C532.306 168.992 530.712 170.406 528.471 171.105H528.466C527.371 171.458 526.422 172.245 525.301 172.886C524.069 173.653 522.632 174.024 521.182 173.948C520.553 173.92 519.934 173.782 519.353 173.542C518.878 173.329 518.434 173.054 518.032 172.725C517.244 172.084 516.55 171.281 515.537 170.69H515.527C513.898 169.76 513.008 168.694 512.724 167.764C512.445 166.84 512.709 166.047 513.517 165.44ZM514.157 229.123C513.928 232.171 512.21 233.83 509.569 234.436C506.932 235.038 503.356 234.436 499.79 232.572C495.837 230.483 491.136 230.689 488.123 230.058C486.616 229.745 485.633 229.27 485.178 228.39C484.728 227.509 484.718 225.973 485.677 223.361L485.682 223.351L485.686 223.341C486.161 221.879 485.809 220.279 485.584 218.772C485.354 217.27 485.241 215.906 485.75 214.952L485.755 214.942C486.415 213.675 487.379 213.22 488.573 212.794C489.771 212.364 491.185 212.026 492.31 210.906L492.315 210.901L492.32 210.896C493.357 209.805 494.135 208.436 495.045 207.462C495.813 206.645 496.581 206.097 497.74 206.092H497.784C497.985 206.092 498.2 206.107 498.43 206.146C499.966 206.376 501.306 207.457 502.603 209.204L506.33 215.998H506.335C507.323 218.068 509.422 220.352 511.198 222.676C512.969 225 514.348 227.333 514.167 229.119L514.157 229.123ZM513.849 224.183C513.339 223.395 512.796 222.63 512.22 221.888C511.853 221.405 511.48 220.928 511.1 220.455C511.839 220.455 512.47 220.338 512.979 220.103C513.275 219.979 513.543 219.796 513.766 219.566C513.99 219.335 514.165 219.062 514.28 218.762C514.72 217.579 514.28 215.91 512.871 214.003C511.452 212.095 509.065 209.942 505.562 207.795C502.984 206.19 501.546 204.229 500.871 202.096C500.196 199.963 500.289 197.659 500.807 195.379C501.805 191.006 504.374 186.759 506.008 184.088C506.448 183.766 506.164 184.69 504.349 188.056C502.725 191.133 499.687 198.236 503.845 203.778C503.994 199.74 504.886 195.763 506.477 192.048C508.786 186.828 513.6 177.768 513.981 170.548C514.182 170.69 514.862 171.149 515.16 171.321C516.051 171.839 516.706 172.602 517.567 173.292C518.433 173.987 519.504 174.583 521.133 174.676L521.588 174.691C523.266 174.691 524.572 174.143 525.663 173.522C526.847 172.847 527.796 172.093 528.686 171.805H528.691C530.585 171.208 532.086 170.166 532.942 168.943C534.42 174.745 537.839 183.115 540.036 187.205C541.205 189.372 543.533 193.98 544.536 199.532C545.172 199.513 545.872 199.606 546.625 199.796C549.252 192.982 544.399 185.649 542.178 183.604C541.278 182.733 541.239 182.342 541.679 182.362C544.086 184.495 547.251 188.775 548.401 193.613C548.924 195.819 549.037 198.138 548.479 200.427C548.753 200.54 549.032 200.662 549.316 200.799C553.533 202.854 555.093 204.639 554.34 207.076C554.095 207.066 553.85 207.071 553.616 207.076H553.547C554.159 205.143 552.809 203.715 549.198 202.086C545.461 200.442 542.482 200.604 541.978 203.94C541.943 204.116 541.915 204.294 541.895 204.473C541.616 204.571 541.337 204.693 541.053 204.845C539.302 205.809 538.338 207.55 537.805 209.688C537.277 211.826 537.12 214.404 536.973 217.31C536.88 218.767 536.284 220.744 535.672 222.832C529.562 227.221 521.065 229.109 513.849 224.183ZM560.949 224.461C558.385 226.012 553.826 227.362 550.92 230.885C548.391 233.893 545.314 235.542 542.604 235.757C539.889 235.972 537.551 234.847 536.171 232.078V232.073L536.166 232.059C535.31 230.43 535.667 227.861 536.386 225.151C537.105 222.441 538.143 219.658 538.284 217.398C538.431 214.502 538.593 211.963 539.082 210.011C539.571 208.059 540.334 206.738 541.689 205.994L541.88 205.897C542.032 208.406 543.274 210.965 545.471 211.517C547.873 212.149 551.336 210.089 552.799 208.406C553.092 208.396 553.376 208.377 553.655 208.372C554.937 208.343 556.008 208.416 557.113 209.375L557.118 209.38C557.965 210.094 558.366 211.449 558.713 212.965C559.06 214.482 559.339 216.131 560.386 217.31C562.392 219.54 563.042 221.047 562.989 222.006C562.935 222.974 562.24 223.689 560.949 224.461Z" fill="#F2F2F2"/>
<path d="M522.655 162.603C522.728 162.838 523.11 162.799 523.33 162.911C523.525 163.009 523.677 163.229 523.897 163.234C524.103 163.239 524.421 163.161 524.45 162.955C524.489 162.681 524.093 162.51 523.834 162.412C523.506 162.285 523.085 162.222 522.777 162.393C522.708 162.432 522.63 162.525 522.655 162.603ZM520.404 162.603C520.326 162.838 519.945 162.799 519.724 162.911C519.534 163.009 519.377 163.229 519.162 163.234C518.956 163.239 518.633 163.161 518.604 162.955C518.57 162.681 518.966 162.51 519.221 162.412C519.548 162.285 519.969 162.222 520.282 162.393C520.355 162.432 520.429 162.525 520.404 162.603Z" fill="#F2F2F2"/>
<path d="M571.728 239.871L619.362 287.362M591.904 191.261C591.904 229.171 561.171 259.904 523.261 259.904C485.35 259.904 454.617 229.171 454.617 191.261C454.617 153.35 485.35 122.617 523.261 122.617C561.171 122.617 591.904 153.35 591.904 191.261Z" stroke="#F2F2F2" stroke-width="12.6719" stroke-linecap="round" stroke-linejoin="round"/>
<path d="M316.83 373.085V365.273H371.375V373.085H348.506V438H339.699V373.085H316.83ZM410.784 415.699V383.455H419.164V438H410.784V428.767H410.216C408.937 431.537 406.949 433.893 404.25 435.834C401.551 437.751 398.142 438.71 394.022 438.71C390.613 438.71 387.583 437.964 384.931 436.473C382.28 434.958 380.197 432.685 378.681 429.655C377.166 426.601 376.409 422.754 376.409 418.114V383.455H384.789V417.545C384.789 421.523 385.902 424.695 388.127 427.062C390.377 429.43 393.241 430.614 396.721 430.614C398.805 430.614 400.923 430.081 403.078 429.016C405.256 427.95 407.079 426.317 408.547 424.115C410.038 421.913 410.784 419.108 410.784 415.699ZM440.764 383.455L453.832 405.756L466.901 383.455H476.56L458.946 410.727L476.56 438H466.901L453.832 416.835L440.764 438H431.105L448.435 410.727L431.105 383.455H440.764ZM526.586 365.273V438H517.779V365.273H526.586ZM565.267 439.136C560.153 439.136 555.75 437.929 552.057 435.514C548.364 433.099 545.523 429.773 543.534 425.536C541.545 421.298 540.551 416.456 540.551 411.011C540.551 405.472 541.569 400.583 543.605 396.345C545.665 392.084 548.529 388.758 552.199 386.366C555.892 383.952 560.201 382.744 565.125 382.744C568.96 382.744 572.417 383.455 575.494 384.875C578.572 386.295 581.093 388.284 583.058 390.841C585.023 393.398 586.242 396.381 586.716 399.79H578.335C577.696 397.304 576.276 395.102 574.074 393.185C571.896 391.243 568.96 390.273 565.267 390.273C562 390.273 559.135 391.125 556.673 392.83C554.235 394.51 552.329 396.89 550.956 399.967C549.607 403.021 548.932 406.608 548.932 410.727C548.932 414.941 549.595 418.611 550.92 421.736C552.27 424.861 554.164 427.287 556.602 429.016C559.064 430.744 561.953 431.608 565.267 431.608C567.445 431.608 569.422 431.229 571.197 430.472C572.973 429.714 574.476 428.625 575.707 427.205C576.938 425.784 577.814 424.08 578.335 422.091H586.716C586.242 425.311 585.071 428.211 583.2 430.791C581.354 433.348 578.903 435.384 575.849 436.899C572.819 438.391 569.292 439.136 565.267 439.136ZM621.126 439.136C616.202 439.136 611.882 437.964 608.165 435.621C604.472 433.277 601.583 429.998 599.5 425.784C597.44 421.57 596.411 416.646 596.411 411.011C596.411 405.33 597.44 400.37 599.5 396.132C601.583 391.894 604.472 388.604 608.165 386.26C611.882 383.916 616.202 382.744 621.126 382.744C626.051 382.744 630.359 383.916 634.053 386.26C637.769 388.604 640.658 391.894 642.717 396.132C644.801 400.37 645.842 405.33 645.842 411.011C645.842 416.646 644.801 421.57 642.717 425.784C640.658 429.998 637.769 433.277 634.053 435.621C630.359 437.964 626.051 439.136 621.126 439.136ZM621.126 431.608C624.867 431.608 627.945 430.649 630.359 428.732C632.774 426.814 634.562 424.293 635.722 421.168C636.882 418.043 637.462 414.657 637.462 411.011C637.462 407.366 636.882 403.968 635.722 400.82C634.562 397.671 632.774 395.126 630.359 393.185C627.945 391.243 624.867 390.273 621.126 390.273C617.386 390.273 614.308 391.243 611.893 393.185C609.479 395.126 607.691 397.671 606.531 400.82C605.371 403.968 604.791 407.366 604.791 411.011C604.791 414.657 605.371 418.043 606.531 421.168C607.691 424.293 609.479 426.814 611.893 428.732C614.308 430.649 617.386 431.608 621.126 431.608ZM667.016 405.188V438H658.635V383.455H666.732V391.977H667.442C668.721 389.207 670.662 386.982 673.266 385.301C675.87 383.597 679.232 382.744 683.351 382.744C687.044 382.744 690.276 383.502 693.046 385.017C695.816 386.509 697.97 388.781 699.509 391.835C701.048 394.866 701.817 398.701 701.817 403.341V438H693.436V403.909C693.436 399.624 692.324 396.286 690.098 393.895C687.873 391.48 684.819 390.273 680.936 390.273C678.261 390.273 675.87 390.853 673.763 392.013C671.68 393.173 670.034 394.866 668.827 397.091C667.62 399.316 667.016 402.015 667.016 405.188ZM755.768 395.67L748.239 397.801C747.766 396.546 747.067 395.327 746.144 394.143C745.245 392.936 744.013 391.942 742.451 391.161C740.888 390.379 738.888 389.989 736.45 389.989C733.112 389.989 730.33 390.758 728.104 392.297C725.903 393.812 724.802 395.741 724.802 398.085C724.802 400.169 725.559 401.814 727.075 403.021C728.59 404.229 730.957 405.235 734.177 406.04L742.273 408.028C747.15 409.212 750.784 411.023 753.175 413.462C755.567 415.876 756.762 418.99 756.762 422.801C756.762 425.926 755.862 428.72 754.063 431.182C752.288 433.644 749.802 435.585 746.606 437.006C743.41 438.426 739.693 439.136 735.455 439.136C729.892 439.136 725.287 437.929 721.641 435.514C717.996 433.099 715.687 429.572 714.717 424.932L722.671 422.943C723.429 425.879 724.861 428.08 726.968 429.548C729.099 431.016 731.88 431.75 735.313 431.75C739.219 431.75 742.321 430.921 744.617 429.264C746.937 427.583 748.097 425.571 748.097 423.227C748.097 421.333 747.434 419.747 746.109 418.469C744.783 417.167 742.747 416.196 740.001 415.557L730.91 413.426C725.915 412.242 722.245 410.408 719.901 407.922C717.581 405.412 716.421 402.276 716.421 398.511C716.421 395.434 717.285 392.711 719.013 390.344C720.765 387.976 723.145 386.118 726.151 384.768C729.182 383.419 732.614 382.744 736.45 382.744C741.847 382.744 746.085 383.928 749.163 386.295C752.264 388.663 754.466 391.788 755.768 395.67Z" fill="white"/>
<defs>
<linearGradient id="paint0_linear_5_2" x1="253.5" y1="469.528" x2="1206.42" y2="-118.013" gradientUnits="userSpaceOnUse">
<stop stop-color="#141414"/>
<stop offset="1" stop-color="#202020"/>
</linearGradient>
<clipPath id="clip0_5_2">
<rect width="48" height="48" fill="white" transform="translate(990 30)"/>
</clipPath>
</defs>
</svg>
