<svg width="223" height="68" viewBox="0 0 223 68" fill="none" xmlns="http://www.w3.org/2000/svg">
<rect x="1" y="1" width="221" height="66" rx="33" fill="#141414"/>
<rect x="1" y="1" width="221" height="66" rx="33" stroke="#202020" stroke-width="2"/>
<path d="M94.0114 39V27.3636H98.6023C99.4811 27.3636 100.231 27.5208 100.852 27.8352C101.477 28.1458 101.953 28.5871 102.278 29.1591C102.608 29.7273 102.773 30.3958 102.773 31.1648C102.773 31.9375 102.606 32.6023 102.273 33.1591C101.939 33.7121 101.456 34.1364 100.824 34.4318C100.195 34.7273 99.4337 34.875 98.5398 34.875H95.4659V32.8977H98.142C98.6117 32.8977 99.0019 32.8333 99.3125 32.7045C99.6231 32.5758 99.8542 32.3826 100.006 32.125C100.161 31.8674 100.239 31.5473 100.239 31.1648C100.239 30.7784 100.161 30.4527 100.006 30.1875C99.8542 29.9223 99.6212 29.7216 99.3068 29.5852C98.9962 29.4451 98.6042 29.375 98.1307 29.375H96.4716V39H94.0114ZM100.295 33.7045L103.188 39H100.472L97.642 33.7045H100.295ZM108.303 39.1705C107.405 39.1705 106.632 38.9886 105.984 38.625C105.34 38.2576 104.844 37.7386 104.496 37.0682C104.147 36.3939 103.973 35.5966 103.973 34.6761C103.973 33.7784 104.147 32.9905 104.496 32.3125C104.844 31.6345 105.335 31.1061 105.967 30.7273C106.604 30.3485 107.35 30.1591 108.206 30.1591C108.782 30.1591 109.318 30.2519 109.814 30.4375C110.314 30.6193 110.75 30.8939 111.121 31.2614C111.496 31.6288 111.787 32.0909 111.996 32.6477C112.204 33.2008 112.308 33.8485 112.308 34.5909V35.2557H104.939V33.7557H110.03C110.03 33.4072 109.954 33.0985 109.803 32.8295C109.651 32.5606 109.441 32.3504 109.172 32.1989C108.907 32.0436 108.598 31.9659 108.246 31.9659C107.878 31.9659 107.553 32.0511 107.268 32.2216C106.988 32.3883 106.768 32.6136 106.609 32.8977C106.45 33.178 106.369 33.4905 106.365 33.8352V35.2614C106.365 35.6932 106.445 36.0663 106.604 36.3807C106.767 36.6951 106.996 36.9375 107.291 37.108C107.587 37.2784 107.937 37.3636 108.342 37.3636C108.611 37.3636 108.857 37.3258 109.081 37.25C109.304 37.1742 109.496 37.0606 109.655 36.9091C109.814 36.7576 109.935 36.572 110.018 36.3523L112.257 36.5C112.143 37.0379 111.911 37.5076 111.558 37.9091C111.21 38.3068 110.759 38.6174 110.206 38.8409C109.657 39.0606 109.022 39.1705 108.303 39.1705ZM116.308 27.3636V39H113.888V27.3636H116.308ZM122.224 39.1705C121.327 39.1705 120.554 38.9886 119.906 38.625C119.262 38.2576 118.766 37.7386 118.418 37.0682C118.069 36.3939 117.895 35.5966 117.895 34.6761C117.895 33.7784 118.069 32.9905 118.418 32.3125C118.766 31.6345 119.257 31.1061 119.889 30.7273C120.526 30.3485 121.272 30.1591 122.128 30.1591C122.704 30.1591 123.24 30.2519 123.736 30.4375C124.236 30.6193 124.671 30.8939 125.043 31.2614C125.418 31.6288 125.709 32.0909 125.918 32.6477C126.126 33.2008 126.23 33.8485 126.23 34.5909V35.2557H118.861V33.7557H123.952C123.952 33.4072 123.876 33.0985 123.724 32.8295C123.573 32.5606 123.363 32.3504 123.094 32.1989C122.829 32.0436 122.52 31.9659 122.168 31.9659C121.8 31.9659 121.474 32.0511 121.19 32.2216C120.91 32.3883 120.69 32.6136 120.531 32.8977C120.372 33.178 120.291 33.4905 120.287 33.8352V35.2614C120.287 35.6932 120.366 36.0663 120.526 36.3807C120.688 36.6951 120.918 36.9375 121.213 37.108C121.509 37.2784 121.859 37.3636 122.264 37.3636C122.533 37.3636 122.779 37.3258 123.003 37.25C123.226 37.1742 123.418 37.0606 123.577 36.9091C123.736 36.7576 123.857 36.572 123.94 36.3523L126.179 36.5C126.065 37.0379 125.832 37.5076 125.48 37.9091C125.132 38.3068 124.681 38.6174 124.128 38.8409C123.579 39.0606 122.944 39.1705 122.224 39.1705ZM130.298 39.1648C129.741 39.1648 129.245 39.0682 128.81 38.875C128.374 38.678 128.029 38.3883 127.776 38.0057C127.526 37.6193 127.401 37.1383 127.401 36.5625C127.401 36.0777 127.49 35.6705 127.668 35.3409C127.846 35.0114 128.088 34.7462 128.395 34.5455C128.702 34.3447 129.05 34.1932 129.44 34.0909C129.834 33.9886 130.247 33.9167 130.679 33.875C131.187 33.822 131.596 33.7727 131.906 33.7273C132.217 33.678 132.442 33.6061 132.582 33.5114C132.723 33.4167 132.793 33.2765 132.793 33.0909V33.0568C132.793 32.697 132.679 32.4186 132.452 32.2216C132.228 32.0246 131.91 31.9261 131.497 31.9261C131.062 31.9261 130.715 32.0227 130.457 32.2159C130.2 32.4053 130.029 32.6439 129.946 32.9318L127.707 32.75C127.821 32.2197 128.045 31.7614 128.378 31.375C128.711 30.9848 129.141 30.6856 129.668 30.4773C130.198 30.2652 130.812 30.1591 131.509 30.1591C131.993 30.1591 132.457 30.2159 132.901 30.3295C133.348 30.4432 133.743 30.6193 134.088 30.858C134.437 31.0966 134.711 31.4034 134.912 31.7784C135.113 32.1496 135.213 32.5947 135.213 33.1136V39H132.918V37.7898H132.849C132.709 38.0625 132.522 38.303 132.287 38.5114C132.052 38.7159 131.77 38.8769 131.44 38.9943C131.111 39.108 130.73 39.1648 130.298 39.1648ZM130.991 37.4943C131.348 37.4943 131.662 37.4242 131.935 37.2841C132.207 37.1402 132.421 36.947 132.577 36.7045C132.732 36.4621 132.81 36.1875 132.81 35.8807V34.9545C132.734 35.0038 132.63 35.0492 132.497 35.0909C132.368 35.1288 132.223 35.1648 132.06 35.1989C131.897 35.2292 131.734 35.2576 131.571 35.2841C131.408 35.3068 131.26 35.3277 131.128 35.3466C130.844 35.3883 130.596 35.4545 130.384 35.5455C130.171 35.6364 130.007 35.7595 129.889 35.9148C129.772 36.0663 129.713 36.2557 129.713 36.483C129.713 36.8125 129.832 37.0644 130.071 37.2386C130.313 37.4091 130.62 37.4943 130.991 37.4943ZM144.352 32.7614L142.136 32.8977C142.098 32.7083 142.017 32.5379 141.892 32.3864C141.767 32.2311 141.602 32.108 141.398 32.017C141.197 31.9223 140.956 31.875 140.676 31.875C140.301 31.875 139.985 31.9545 139.727 32.1136C139.47 32.2689 139.341 32.4773 139.341 32.7386C139.341 32.947 139.424 33.1231 139.591 33.267C139.758 33.411 140.044 33.5265 140.449 33.6136L142.028 33.9318C142.877 34.1061 143.509 34.3864 143.926 34.7727C144.343 35.1591 144.551 35.6667 144.551 36.2955C144.551 36.8674 144.383 37.3693 144.045 37.8011C143.712 38.233 143.254 38.5701 142.67 38.8125C142.091 39.0511 141.422 39.1705 140.665 39.1705C139.509 39.1705 138.589 38.9299 137.903 38.4489C137.222 37.964 136.822 37.3049 136.705 36.4716L139.085 36.3466C139.157 36.6989 139.331 36.9678 139.608 37.1534C139.884 37.3352 140.239 37.4261 140.67 37.4261C141.095 37.4261 141.436 37.3447 141.693 37.1818C141.955 37.0152 142.087 36.8011 142.091 36.5398C142.087 36.3201 141.994 36.1402 141.812 36C141.631 35.8561 141.35 35.7462 140.972 35.6705L139.46 35.3693C138.608 35.1989 137.973 34.9034 137.557 34.483C137.144 34.0625 136.938 33.5265 136.938 32.875C136.938 32.3144 137.089 31.8314 137.392 31.4261C137.699 31.0208 138.129 30.7083 138.682 30.4886C139.239 30.2689 139.89 30.1591 140.636 30.1591C141.739 30.1591 142.606 30.392 143.239 30.858C143.875 31.3239 144.246 31.9583 144.352 32.7614ZM150.053 39.1705C149.155 39.1705 148.382 38.9886 147.734 38.625C147.09 38.2576 146.594 37.7386 146.246 37.0682C145.897 36.3939 145.723 35.5966 145.723 34.6761C145.723 33.7784 145.897 32.9905 146.246 32.3125C146.594 31.6345 147.085 31.1061 147.717 30.7273C148.354 30.3485 149.1 30.1591 149.956 30.1591C150.532 30.1591 151.068 30.2519 151.564 30.4375C152.064 30.6193 152.5 30.8939 152.871 31.2614C153.246 31.6288 153.537 32.0909 153.746 32.6477C153.954 33.2008 154.058 33.8485 154.058 34.5909V35.2557H146.689V33.7557H151.78C151.78 33.4072 151.704 33.0985 151.553 32.8295C151.401 32.5606 151.191 32.3504 150.922 32.1989C150.657 32.0436 150.348 31.9659 149.996 31.9659C149.628 31.9659 149.303 32.0511 149.018 32.2216C148.738 32.3883 148.518 32.6136 148.359 32.8977C148.2 33.178 148.119 33.4905 148.115 33.8352V35.2614C148.115 35.6932 148.195 36.0663 148.354 36.3807C148.517 36.6951 148.746 36.9375 149.041 37.108C149.337 37.2784 149.687 37.3636 150.092 37.3636C150.361 37.3636 150.607 37.3258 150.831 37.25C151.054 37.1742 151.246 37.0606 151.405 36.9091C151.564 36.7576 151.685 36.572 151.768 36.3523L154.007 36.5C153.893 37.0379 153.661 37.5076 153.308 37.9091C152.96 38.3068 152.509 38.6174 151.956 38.8409C151.407 39.0606 150.772 39.1705 150.053 39.1705ZM162.899 32.7614L160.683 32.8977C160.645 32.7083 160.564 32.5379 160.439 32.3864C160.314 32.2311 160.149 32.108 159.945 32.017C159.744 31.9223 159.503 31.875 159.223 31.875C158.848 31.875 158.532 31.9545 158.274 32.1136C158.017 32.2689 157.888 32.4773 157.888 32.7386C157.888 32.947 157.971 33.1231 158.138 33.267C158.304 33.411 158.59 33.5265 158.996 33.6136L160.575 33.9318C161.424 34.1061 162.056 34.3864 162.473 34.7727C162.89 35.1591 163.098 35.6667 163.098 36.2955C163.098 36.8674 162.929 37.3693 162.592 37.8011C162.259 38.233 161.801 38.5701 161.217 38.8125C160.638 39.0511 159.969 39.1705 159.212 39.1705C158.056 39.1705 157.136 38.9299 156.45 38.4489C155.768 37.964 155.369 37.3049 155.251 36.4716L157.632 36.3466C157.704 36.6989 157.878 36.9678 158.155 37.1534C158.431 37.3352 158.786 37.4261 159.217 37.4261C159.642 37.4261 159.982 37.3447 160.24 37.1818C160.501 37.0152 160.634 36.8011 160.638 36.5398C160.634 36.3201 160.541 36.1402 160.359 36C160.178 35.8561 159.897 35.7462 159.518 35.6705L158.007 35.3693C157.155 35.1989 156.52 34.9034 156.104 34.483C155.691 34.0625 155.484 33.5265 155.484 32.875C155.484 32.3144 155.636 31.8314 155.939 31.4261C156.246 31.0208 156.676 30.7083 157.229 30.4886C157.786 30.2689 158.437 30.1591 159.183 30.1591C160.286 30.1591 161.153 30.392 161.786 30.858C162.422 31.3239 162.793 31.9583 162.899 32.7614Z" fill="white"/>
<path d="M35 54C46.0457 54 55 45.0457 55 34C55 22.9543 46.0457 14 35 14C23.9543 14 15 22.9543 15 34C15 45.0457 23.9543 54 35 54Z" fill="white"/>
<path d="M17.8135 44.235C20.2481 48.3138 24.0939 51.4526 28.6772 52.9784C29.6779 53.1614 30.0425 52.5438 30.0425 52.0134C30.0425 51.7938 30.0388 51.4058 30.0339 50.8866C30.0282 50.2852 30.0208 49.5079 30.0155 48.6124C24.4524 49.8206 23.2787 45.931 23.2787 45.931C22.3689 43.6215 21.0576 43.0064 21.0576 43.0064C19.2417 41.7651 21.1951 41.7896 21.1951 41.7896C23.2025 41.9321 24.2584 43.8511 24.2584 43.8511C26.0424 46.9071 28.94 46.0243 30.0794 45.5135C30.2611 44.2207 30.7767 43.3391 31.3489 42.8394C26.908 42.3348 22.2387 40.6183 22.2387 32.9545C22.2387 30.7715 23.0184 28.9863 24.2977 27.5879C24.0914 27.082 23.4051 25.0488 24.4929 22.2949C24.4929 22.2949 26.1725 21.7571 29.9934 24.3453C31.5883 23.9021 33.2998 23.6798 35.0003 23.6725C36.6983 23.6798 38.4099 23.9021 40.0072 24.3453C43.8256 21.7571 45.5016 22.2949 45.5016 22.2949C46.5931 25.0488 45.9067 27.082 45.7005 27.5879C46.9823 28.9863 47.757 30.7715 47.757 32.9545C47.757 40.638 43.0804 42.3286 38.6247 42.8234C39.343 43.441 39.9827 44.6614 39.9827 46.5277C39.9827 48.3152 39.9717 49.8722 39.9644 50.9035C39.9608 51.4143 39.9581 51.7962 39.9581 52.0134C39.9581 52.5487 40.3178 53.1712 41.3332 52.976C44.9844 51.7572 48.1671 49.5154 50.5403 46.5903C46.8734 51.1108 41.274 54 34.9997 54C27.6943 54 21.3038 50.0832 17.8135 44.235Z" fill="#141414"/>
</svg>
